<svg width="86" height="78" viewBox="0 0 86 78" fill="none" xmlns="http://www.w3.org/2000/svg">
<path opacity="0.99" d="M46.6502 51.8909L47.0746 50.8794C50.4094 43.1036 52.7741 38.0462 54.2899 35.7071C54.5324 35.391 54.7143 35.1382 54.8962 34.9485C55.0781 34.7589 55.26 34.6324 55.5025 34.4428C55.7451 34.3163 55.9876 34.1267 56.3514 34.0002C57.3821 33.5577 58.6554 33.3048 60.2319 33.3048C61.0807 33.3048 61.5658 33.3681 61.8083 33.4945C62.0509 33.6209 62.1115 34.0002 62.1115 34.506C62.1115 34.8853 62.1115 35.3278 62.0509 35.7703C61.9296 38.4255 61.8689 40.2588 61.8689 41.3967C61.8689 44.1783 62.0509 46.8335 62.4146 49.3622C62.6572 50.753 63.021 52.207 63.4454 53.6611C63.9305 54.9254 64.4155 55.9369 64.84 56.6323C65.3856 57.3909 65.8101 57.9599 66.1739 58.276C66.5983 58.7185 66.8408 59.0978 66.8408 59.3507C66.8408 59.7932 66.477 60.4254 65.7494 61.184C64.4762 62.4484 63.2635 63.0805 61.9902 63.0805C60.2319 63.0805 58.6554 62.3219 57.2003 60.7415C56.4727 59.9829 55.8663 59.161 55.4419 58.2127C55.0175 57.2645 54.7143 56.1266 54.4718 54.799C54.2293 53.4714 54.108 51.7013 54.0474 49.6151C53.9261 47.3392 53.8655 46.0749 53.8655 45.7588H53.8048C52.8953 47.5289 52.1678 48.9829 51.6221 50.1841C51.0157 51.3852 50.5307 52.3335 50.1669 53.0921C49.8031 53.8507 49.3786 54.799 48.8329 55.8737C47.2565 59.3507 46.1651 61.3737 45.6801 62.1323C45.6801 62.1323 45.6194 62.2587 45.4981 62.3219C45.4375 62.4484 45.3163 62.5116 45.2556 62.5748C45.0131 62.8277 44.7706 63.0173 44.4674 63.0805C44.1643 63.207 43.9217 63.2702 43.6792 63.2702C43.0728 63.2702 42.4665 62.8909 41.7389 62.1323C41.0113 61.3737 40.405 60.3622 39.8593 59.161C39.3136 57.8967 38.8892 56.5691 38.5254 55.2415C38.1616 53.9139 37.8585 52.3335 37.6159 50.5002C37.3734 48.6668 37.1309 46.4542 36.949 43.799H36.8883C36.4639 44.7473 36.1607 45.5059 35.9182 45.9484C35.6757 46.391 35.3725 47.1496 34.9481 48.1611C34.5237 49.1726 34.2811 49.7415 34.1599 49.9312C33.5535 51.2588 33.0078 52.5864 32.3409 53.9771C31.7346 55.3047 31.1889 56.3794 30.8251 57.1381C30.4613 57.8967 30.0368 58.5921 29.5518 59.2875C29.3699 59.6035 28.9455 60.1093 28.4604 60.7415C27.6116 61.5633 26.7021 62.1955 25.7319 62.638C24.7618 63.0805 23.7917 63.3334 22.9428 63.3334C22.579 63.3334 22.3365 63.2702 22.0334 63.0805C21.7302 62.8909 21.6696 62.7012 21.6696 62.3851C21.6696 62.1323 21.8515 61.8162 22.2153 61.3736C22.3972 61.1208 22.8822 60.4254 23.6098 59.3507L24.8225 57.3909C25.55 56.253 26.7021 54.1036 28.2785 51.1323L29.3093 49.1726C31.6739 44.4944 33.2504 41.2703 34.0992 39.5002C34.9481 37.7933 35.3119 36.7818 35.3119 36.4657C35.3119 36.1497 35.13 35.8336 34.7056 35.4542C34.4024 35.2014 34.2205 34.9485 34.2205 34.7588C34.2205 34.4428 34.6449 34.1267 35.4332 33.8738C36.2214 33.5577 37.1309 33.4313 38.101 33.4313C40.0412 33.4313 41.3752 33.8738 42.224 34.7588C42.7091 35.3278 43.1941 36.4025 43.6186 38.0462C44.043 39.6899 44.4674 42.0289 44.9525 45.1266C44.9525 45.3163 45.0131 45.4427 45.0131 45.5059C45.0131 45.6324 45.0131 45.6956 45.0737 45.7588C45.0737 45.822 45.0737 45.9485 45.0737 46.0749C45.1344 46.4542 45.195 46.7703 45.195 46.8967C45.4981 48.7933 45.7407 49.9944 45.862 50.5634C46.1651 51.0059 46.347 51.4484 46.6502 51.8909Z" fill="#994BBA"/>
<path d="M60.8989 57.7702C64.5975 58.1495 68.2961 57.9599 71.6309 56.6955C73.268 56.0633 74.7837 55.1783 76.1177 54.0403C77.4516 52.9024 78.543 51.4484 79.3918 49.868C81.0895 46.6438 81.8777 42.8507 81.8777 38.9944C81.8777 35.1381 81.2714 31.1554 80.0588 27.4888C79.4524 25.6554 78.7249 23.8221 77.8154 22.1152C76.9059 20.4083 75.8145 18.8911 74.6018 17.3739C72.1159 14.4658 69.0843 12.0003 65.8101 10.0406C64.173 9.02909 62.4147 8.20724 60.6564 7.38541C58.898 6.62679 57.079 5.99461 55.1994 5.42565C51.5008 4.35094 47.6204 3.71876 43.8005 3.5291C39.92 3.40267 36.0396 3.65554 32.2803 4.47737L30.8858 4.79346L29.4912 5.17278C28.5818 5.42565 27.6723 5.74174 26.7021 6.05783C24.8832 6.75322 23.1248 7.51185 21.4271 8.46012C14.6363 12.19 9.1187 18.3853 5.66265 25.5922C2.20659 32.7991 0.812046 41.2071 2.38849 49.1726L2.69165 50.6898C2.81292 51.1955 2.99482 51.6381 3.11609 52.1438L3.54051 53.5978L4.0862 54.9886C4.81379 56.8852 5.78391 58.6553 6.81466 60.3621C8.99743 63.7759 11.7259 66.7472 14.7575 69.2759L15.3032 69.7184L14.7575 70.1609L6.63277 76.7356L6.32961 75.977L21.1239 73.7012H21.1846H21.2452C23.3674 74.5862 25.5501 75.3448 27.7329 75.977C29.9763 76.6092 32.2197 77.0517 34.4631 77.431C36.7671 77.7471 39.0712 77.8736 41.3146 77.7471C43.6186 77.5575 45.862 77.1782 48.1055 76.4196C45.9227 77.2414 43.6793 77.6839 41.3752 77.9368C39.0712 78.0632 36.7671 78 34.4631 77.7471C32.1591 77.4942 29.9157 77.0517 27.6723 76.4196C25.4289 75.8506 23.1854 75.1552 21.0633 74.2701H21.1846L6.39024 76.8621L4.81379 77.1149L6.08708 76.0402L14.0906 69.3391V70.2242C10.877 67.6954 8.02732 64.661 5.72328 61.184C4.57126 59.4771 3.54051 57.5806 2.75229 55.684L2.14597 54.23L1.66089 52.7128C1.479 52.207 1.35774 51.7013 1.17584 51.1955L0.812042 49.6151C-0.0974465 45.5059 -0.218704 41.1439 0.326989 36.9715C0.872682 32.7359 2.08532 28.6267 3.78303 24.8336C7.23909 17.1842 12.9385 10.4831 20.1538 6.31069C21.9122 5.23599 23.8524 4.41416 25.732 3.59232C26.7021 3.27623 27.6723 2.8337 28.6424 2.58083L30.0976 2.13832L31.6134 1.759C35.6151 0.810733 39.7381 0.431425 43.8005 0.494643C47.8629 0.621079 51.9859 1.19003 55.927 2.26474C57.9279 2.77049 59.8682 3.46589 61.8084 4.22451C63.688 5.04634 65.6283 5.86817 67.3866 6.94287C71.0246 9.02907 74.42 11.621 77.2697 14.8451C78.6642 16.4888 79.9982 18.2589 81.0289 20.1555C82.1203 22.052 82.9691 24.075 83.6967 26.098C85.0913 30.2071 85.8795 34.5692 85.9401 38.9944C85.9401 43.4197 85.2126 47.9714 83.1511 52.0806C82.1203 54.1036 80.6651 56.0001 78.9674 57.5806C77.2697 59.161 75.2688 60.3622 73.2073 61.184C69.0237 62.8277 64.5975 63.1438 60.4139 62.7644C59.0799 62.638 58.1098 61.4369 58.1704 60.0461C58.2917 58.6553 59.4437 57.6438 60.7776 57.707C60.8383 57.7702 60.8989 57.7702 60.8989 57.7702Z" fill="#994BBA"/>
</svg>
